<svg width="33" height="30" fill="none" xmlns="http://www.w3.org/2000/svg"><g filter="url(#a)"><mask id="b" fill="#fff"><path d="M16.434.333a5.833 5.833 0 1 1 0 11.667 5.833 5.833 0 0 1 0-11.667m0 14.584c6.445 0 11.666 2.61 11.666 5.833v2.917H4.767V20.75c0-3.223 5.22-5.833 11.667-5.833Z"/></mask><path d="M16.434.333a5.833 5.833 0 1 1 0 11.667 5.833 5.833 0 0 1 0-11.667m0 14.584c6.445 0 11.666 2.61 11.666 5.833v2.917H4.767V20.75c0-3.223 5.22-5.833 11.667-5.833Z" fill="#fff"/><path d="M22.267 6.167h1-1ZM16.434 12v1-1ZM10.6 6.167h-1 1Zm17.5 17.5v1h1v-1h-1Zm-23.333 0h-1v1h1v-1ZM16.434 1.333c1.281 0 2.51.51 3.417 1.416l1.415-1.414a6.833 6.833 0 0 0-4.832-2.002v2ZM19.85 2.75a4.834 4.834 0 0 1 1.416 3.418h2c0-1.813-.72-3.55-2.002-4.832l-1.414 1.414Zm1.416 3.418c0 1.282-.51 2.51-1.416 3.417L21.266 11a6.833 6.833 0 0 0 2.001-4.832h-2Zm-1.416 3.417A4.833 4.833 0 0 1 16.434 11v2c1.812 0 3.55-.72 4.831-2.001l-1.414-1.415ZM16.434 11a4.833 4.833 0 0 1-3.418-1.416L11.602 11A6.833 6.833 0 0 0 16.434 13v-2Zm-3.418-1.416A4.833 4.833 0 0 1 11.6 6.167h-2c0 1.812.72 3.55 2.002 4.832l1.414-1.415ZM11.6 6.167c0-1.282.51-2.512 1.416-3.418l-1.414-1.414A6.833 6.833 0 0 0 9.6 6.167h2Zm1.416-3.418a4.833 4.833 0 0 1 3.418-1.416v-2c-1.813 0-3.55.72-4.832 2.002l1.414 1.414Zm3.418 13.168c3.101 0 5.858.63 7.803 1.602 2.004 1.002 2.863 2.202 2.863 3.231h2c0-2.194-1.751-3.91-3.969-5.02-2.277-1.138-5.353-1.813-8.697-1.813v2ZM27.1 20.75v2.917h2V20.75h-2Zm1 1.917H4.767v2H28.1v-2Zm-22.333 1V20.75h-2v2.917h2Zm0-2.917c0-1.029.859-2.229 2.863-3.23 1.945-.973 4.702-1.603 7.804-1.603v-2c-3.345 0-6.421.675-8.698 1.813-2.218 1.11-3.969 2.826-3.969 5.02h2Z" fill="#000" mask="url(#b)"/></g><defs><filter id="a" x=".767" y=".333" width="31.333" height="31.333" filterUnits="userSpaceOnUse" color-interpolation-filters="sRGB"><feFlood flood-opacity="0" result="BackgroundImageFix"/><feColorMatrix in="SourceAlpha" values="0 0 0 0 0 0 0 0 0 0 0 0 0 0 0 0 0 0 127 0" result="hardAlpha"/><feOffset dy="4"/><feGaussianBlur stdDeviation="2"/><feComposite in2="hardAlpha" operator="out"/><feColorMatrix values="0 0 0 0 0 0 0 0 0 0 0 0 0 0 0 0 0 0 0.25 0"/><feBlend in2="BackgroundImageFix" result="effect1_dropShadow_5_86"/><feBlend in="SourceGraphic" in2="effect1_dropShadow_5_86" result="shape"/></filter></defs></svg>